<?xml version="1.0" encoding="UTF-8"?>
<!DOCTYPE svg PUBLIC "-//W3C//DTD SVG 1.1//EN" "http://www.w3.org/Graphics/SVG/1.1/DTD/svg11.dtd">
<!-- Creator: CorelDRAW X7 -->
<svg xmlns="http://www.w3.org/2000/svg" xml:space="preserve" width="85.3522mm" height="63.4616mm" version="1.1" shape-rendering="geometricPrecision" text-rendering="geometricPrecision" image-rendering="optimizeQuality" fill-rule="evenodd" clip-rule="evenodd"
viewBox="0 0 8526 6339"
 xmlns:xlink="http://www.w3.org/1999/xlink">
 <g id="Camada_x0020_1">
  <metadata id="CorelCorpID_0Corel-Layer"/>
  <g id="_818058880">
   <path fill="#FEFEFE" fill-rule="nonzero" d="M3252 4104l-47 -65c-48,31 -102,51 -139,55l-38 -96c41,-5 92,-20 137,-53 39,-28 55,-63 35,-90 -19,-27 -53,-27 -117,-8 -92,29 -167,31 -216,-36 -44,-61 -35,-140 28,-208l-47 -65 67 -49 44 60c48,-31 86,-44 117,-49l37 92c-24,6 -67,13 -117,49 -45,32 -45,62 -31,82 16,22 51,19 126,-1 103,-30 164,-16 209,46 10,14 18,30 23,47l-10 106c-9,22 -24,43 -44,64l35 48 -4 37 -48 34z"/>
   <path fill="#F9C71C" fill-rule="nonzero" d="M2757 4810l-693 -1166c-19,-32 -11,-73 19,-95l203 -146 -66 -92c-123,-170 -85,-409 85,-533 170,-123 409,-84 532,86l67 91 202 -146c30,-22 72,-17 96,11l189 217 -18 198 -236 -272 -150 108 75 104c23,32 16,77 -16,100 -32,23 -76,16 -100,-16l-75 -104 -385 280 75 103c23,32 16,77 -16,100 -32,23 -77,16 -100,-16l-75 -103 -150 108 623 1047 432 -313 -17 189 -395 286c-32,23 -77,16 -100,-16 -2,-3 -4,-7 -6,-10zm-35 -1862c-77,-107 -227,-131 -333,-54 -106,77 -130,227 -53,333l66 92 386 -280 -66 -91z"/>
  </g>
  <g id="_818048768">
   <path fill="#FEFEFE" fill-rule="nonzero" d="M5224 4057l48 -66c-31,-24 -57,-53 -76,-80l-4 -48 63 -52c18,37 48,81 93,113 39,29 77,33 97,5 19,-26 9,-59 -29,-113 -56,-78 -82,-150 -33,-217 44,-61 121,-77 206,-38l47 -66 68 49 -44 61c45,36 69,68 84,95l-77 64c-13,-21 -33,-60 -83,-96 -45,-32 -73,-23 -87,-4 -17,23 -3,55 40,120 61,88 67,150 22,213 -45,61 -126,82 -216,39l-51 70 -68 -49z"/>
   <path fill="#F9C71C" fill-rule="nonzero" d="M5755 4810l694 -1166c19,-32 10,-73 -20,-95l-202 -146 66 -92c123,-170 85,-409 -86,-533 -170,-123 -409,-84 -532,86l-66 91 -203 -146c-30,-22 -72,-17 -96,11l-186 213 16 199 235 -269 150 108 -75 104c-24,32 -16,77 16,100 32,23 76,16 100,-16l75 -104 386 280 -75 103c-23,32 -16,77 16,100 32,23 77,16 100,-16l75 -103 150 108 -623 1047 -437 -316 15 188 401 290c32,23 77,16 100,-16 3,-3 5,-7 6,-10zm36 -1862c77,-107 226,-131 332,-54 107,77 131,227 54,333l-66 92 -386 -280 66 -91z"/>
  </g>
  <g id="_818048032">
   <path fill="#F9C71C" d="M1346 1412c0,0 -888,185 -1346,344l688 349 -364 628c0,0 1201,-359 1465,-374 0,0 32,-259 -5,-259 -37,0 -316,65 -316,65l-122 -753z"/>
   <path fill="#F9C71C" d="M7180 1410c0,0 888,184 1346,344l-688 348 364 628c0,0 -1201,-359 -1465,-373 0,0 -32,-260 5,-260 37,0 316,65 316,65l122 -752z"/>
   <path fill="#F9C71C" d="M1256 625c0,0 2890,-767 6020,0l-257 1494c0,0 -2420,-647 -5507,-14l-256 -1480z"/>
  </g>
  <path fill="#F9C71C" d="M2226 1113l0 -431 -43 0 0 902 43 0 0 -430 274 0 0 430 44 0 0 -902 -44 0 0 431 -274 0zm826 471l43 0 -207 -902 -34 0 -137 585 0 4 -71 313 43 0 62 -276 239 0 62 276zm-182 -789l110 472 -219 0 109 -472zm278 549c0,101 26,158 64,195 37,36 86,45 130,45 43,0 92,-9 129,-45 38,-37 63,-94 63,-195l0 -21 -43 0 0 21c0,69 -12,118 -37,152 -26,30 -64,47 -112,47 -101,0 -150,-61 -150,-199l0 -424c0,-138 52,-197 150,-197 97,0 149,59 149,197l0 21 43 0 0 -21c0,-98 -25,-159 -63,-194 -37,-35 -86,-44 -129,-44 -44,0 -93,9 -130,44 -38,35 -64,96 -64,194l0 424zm506 -150l0 -512 -43 0 0 902 43 0 0 -313 75 -114 245 427 48 0 -269 -471 269 -431 -51 0 -317 512zm820 390l43 0 -207 -902 -34 0 -137 585 0 4 -71 313 43 0 62 -276 239 0 62 276zm-181 -789l110 472 -219 0 109 -472zm679 537c0,-68 -21,-120 -61,-159 -13,-13 -28,-24 -46,-32 22,-11 53,-24 68,-42 33,-38 49,-99 49,-179 0,-165 -51,-240 -196,-240l-190 0 0 903 42 0 0 -422 121 0c108,0 169,63 169,171l0 251 44 0 0 -251zm-334 -609l148 0c120,0 155,56 155,197 0,139 -62,198 -182,198l-121 0 0 -395zm425 -41l0 902 325 0 0 -41 -283 0 0 -390 243 0 0 -42 -243 0 0 -388 283 0 0 -41 -325 0zm394 681c0,146 60,221 180,221 120,0 179,-75 179,-221l0 -681 -42 0 0 681c0,123 -47,180 -137,180 -31,0 -65,-4 -91,-30 -27,-25 -47,-70 -47,-150l0 -20 -42 0 0 20zm449 -19c0,101 25,158 63,195 38,36 86,45 129,45 45,0 93,-9 131,-45 37,-37 63,-94 63,-195l0 -424c0,-155 -65,-238 -194,-238 -128,0 -192,84 -192,238l0 424zm42 -424c0,-134 48,-197 150,-197 101,0 151,59 151,197l0 424c0,140 -53,199 -151,199 -101,0 -150,-63 -150,-199l0 -424z"/>
  <path fill="#F9C71C" d="M1902 111c612,-49 2911,-211 4619,-21 294,32 274,-26 273,248l-8 2457c-1,259 5,469 -41,729 -209,1190 -1005,2097 -2043,2639 -401,209 -381,244 -793,42 -1047,-511 -1944,-1521 -2124,-2680 -45,-292 -38,-566 -38,-859l0 -2372c0,-207 -43,-167 155,-183zm127 134c579,-47 2755,-201 4371,-20 278,31 259,-24 258,237l-7 2343c-1,247 4,447 -39,694 -198,1136 -951,2000 -1934,2517 -379,199 -360,232 -750,41 -990,-488 -1839,-1452 -2009,-2557 -43,-278 -36,-539 -36,-819l0 -2262c0,-197 -41,-159 146,-174z"/>
  <path fill="#FEFEFE" fill-rule="nonzero" d="M2226 1113l0 -431 -43 0 0 902 43 0 0 -430 274 0 0 430 44 0 0 -902 -44 0 0 431 -274 0zm826 471l43 0 -207 -902 -34 0 -137 585 0 4 -71 313 43 0 62 -276 239 0 62 276zm-182 -789l110 472 -219 0 109 -472zm278 549c0,101 26,158 64,195 37,36 86,45 130,45 43,0 92,-9 129,-45 38,-37 63,-94 63,-195l0 -21 -43 0 0 21c0,69 -12,118 -37,152 -26,30 -64,47 -112,47 -101,0 -150,-61 -150,-199l0 -424c0,-138 52,-197 150,-197 97,0 149,59 149,197l0 21 43 0 0 -21c0,-98 -25,-159 -63,-194 -37,-35 -86,-44 -129,-44 -44,0 -93,9 -130,44 -38,35 -64,96 -64,194l0 424zm506 -150l0 -512 -43 0 0 902 43 0 0 -313 75 -114 245 427 48 0 -269 -471 269 -431 -51 0 -317 512zm820 390l43 0 -207 -902 -34 0 -137 585 0 4 -71 313 43 0 62 -276 239 0 62 276zm-181 -789l110 472 -219 0 109 -472zm679 537c0,-68 -21,-120 -61,-159 -13,-13 -28,-24 -46,-32 22,-11 53,-24 68,-42 33,-38 49,-99 49,-179 0,-165 -51,-240 -196,-240l-190 0 0 903 42 0 0 -422 121 0c108,0 169,63 169,171l0 251 44 0 0 -251zm-334 -609l148 0c120,0 155,56 155,197 0,139 -62,198 -182,198l-121 0 0 -395zm425 -41l0 902 325 0 0 -41 -283 0 0 -390 243 0 0 -42 -243 0 0 -388 283 0 0 -41 -325 0zm394 681c0,146 60,221 180,221 120,0 179,-75 179,-221l0 -681 -42 0 0 681c0,123 -47,180 -137,180 -31,0 -65,-4 -91,-30 -27,-25 -47,-70 -47,-150l0 -20 -42 0 0 20zm449 -19c0,101 25,158 63,195 38,36 86,45 129,45 45,0 93,-9 131,-45 37,-37 63,-94 63,-195l0 -424c0,-155 -65,-238 -194,-238 -128,0 -192,84 -192,238l0 424zm42 -424c0,-134 48,-197 150,-197 101,0 151,59 151,197l0 424c0,140 -53,199 -151,199 -101,0 -150,-63 -150,-199l0 -424z"/>
  <g id="_818069440">
   <path fill="#F9C71C" fill-rule="nonzero" d="M5369 4691l-166 -1848c-5,-51 -47,-90 -98,-90l-342 0 0 -154c0,-288 -234,-522 -522,-522 -287,0 -521,234 -521,522l0 154 -343 0c-51,0 -93,39 -97,90l-167 1855c0,3 0,6 0,9 0,24 9,48 25,66 19,20 45,32 73,32l2061 0c54,0 98,-44 98,-98 0,-5 0,-11 -1,-16zm-1454 -2092c0,-180 147,-326 326,-326 180,0 326,146 326,326l0 154 -652 0 0 -154zm-597 2010l149 -1660 253 0 0 175c0,54 44,98 98,98 54,0 97,-44 97,-98l0 -175 652 0 0 175c0,54 44,98 98,98 54,0 98,-44 98,-98l0 -175 253 0 149 1660 -1847 0z"/>
   <path fill="#FEFEFE" fill-rule="nonzero" d="M4211 4464l0 -143c-101,-5 -199,-32 -256,-65l45 -177c63,35 152,67 250,67 86,0 145,-33 145,-94 0,-57 -48,-94 -160,-131 -161,-55 -271,-130 -271,-276 0,-133 93,-237 255,-269l0 -144 148 0 0 133c101,5 169,26 219,50l-44 171c-39,-17 -109,-52 -217,-52 -99,0 -130,43 -130,85 0,50 52,81 181,130 179,63 252,146 252,282 0,134 -95,249 -269,279l0 154 -148 0z"/>
  </g>
 </g>
</svg>
