<?xml version="1.0" encoding="UTF-8"?>
<!DOCTYPE svg PUBLIC "-//W3C//DTD SVG 1.1//EN" "http://www.w3.org/Graphics/SVG/1.1/DTD/svg11.dtd">
<!-- Creator: CorelDRAW X7 -->
<svg xmlns="http://www.w3.org/2000/svg" xml:space="preserve" width="100mm" height="100mm" version="1.1" shape-rendering="geometricPrecision" text-rendering="geometricPrecision" image-rendering="optimizeQuality" fill-rule="evenodd" clip-rule="evenodd"
viewBox="0 0 10000 10000"
 xmlns:xlink="http://www.w3.org/1999/xlink">
 <g id="Camada_x0020_1">
  <metadata id="CorelCorpID_0Corel-Layer"/>
  <path fill="#9B59B6" fill-rule="nonzero" stroke="#9B59B6" stroke-width="300" stroke-linecap="round" stroke-linejoin="round" d="M2632 2162c612,-49 2914,-211 4624,-22 294,33 275,-25 274,249l-1 181c160,31 321,67 483,106l-257 1496c0,0 -81,-22 -231,-53l0 38c90,16 269,58 269,58l123 -753c0,0 888,184 1347,344l-688 349 364 629c0,0 -1076,-322 -1416,-369l-2 434c0,259 5,469 -41,729 -209,1192 -1006,2099 -2046,2642 -400,209 -381,244 -793,43 -1048,-512 -1946,-1524 -2126,-2684 -46,-292 -39,-566 -39,-860l0 -302c-330,43 -1424,370 -1424,370l364 -629 -688 -349c459,-160 1347,-344 1347,-344l123 753c0,0 192,-45 278,-60l0 -46c-77,15 -155,30 -234,46l-257 -1482c0,0 177,-47 491,-106l0 -226c0,-206 -43,-166 156,-182zm127 134c580,-47 2758,-201 4375,-21 279,32 260,-24 259,238l0 30c-2016,-375 -3855,-161 -4780,2l0 -75c0,-197 -41,-159 146,-174zm4629 1796l-2 766c-1,247 4,448 -39,696 -199,1136 -952,2001 -1936,2519 -379,199 -360,233 -751,41 -992,-488 -1841,-1453 -2011,-2560 -43,-278 -36,-540 -36,-820l0 -646c2209,-389 4028,-139 4775,4z"/>
  <g id="_843047568">
   <path fill="#FEFEFE" fill-rule="nonzero" d="M3984 6159l-48 -65c-48,31 -102,51 -139,55l-38 -96c41,-5 92,-20 137,-53 39,-28 55,-63 35,-91 -19,-26 -53,-27 -117,-7 -92,29 -167,31 -216,-36 -44,-61 -35,-140 28,-208l-48 -66 68 -49 44 61c48,-32 86,-45 117,-50l37 93c-24,5 -67,12 -117,48 -45,33 -45,63 -31,82 16,23 51,20 126,0 103,-31 164,-17 209,45 11,15 18,31 23,47l-9 107c-10,22 -25,43 -45,64l35 47 -3 38 -48 34z"/>
   <path fill="#F9C71C" fill-rule="nonzero" d="M3488 6866l-694 -1168c-19,-32 -11,-73 19,-94l203 -147 -66 -92c-123,-170 -85,-410 85,-533 171,-123 410,-85 533,86l66 91 203 -147c30,-22 72,-17 96,11l189 217 -17 199 -237 -272 -150 108 75 104c24,32 16,77 -16,100 -32,23 -76,16 -100,-16l-75 -104 -386 280 75 104c23,32 16,77 -16,100 -32,23 -77,16 -100,-16l-75 -104 -150 108 623 1049 433 -314 -16 189 -396 287c-32,23 -77,16 -100,-16 -3,-4 -5,-7 -6,-10zm-36 -1864c-77,-107 -226,-131 -333,-54 -106,77 -130,227 -53,333l66 92 386 -280 -66 -91z"/>
  </g>
  <g id="_843043632">
   <path fill="#FEFEFE" fill-rule="nonzero" d="M5958 6112l47 -66c-30,-24 -57,-53 -76,-80l-4 -48 64 -53c17,37 47,81 92,114 40,28 78,33 98,5 19,-26 9,-59 -30,-113 -56,-79 -81,-150 -33,-217 44,-61 122,-78 206,-39l48 -66 68 50 -44 60c45,36 69,68 84,96l-77 64c-13,-21 -33,-60 -83,-96 -45,-33 -73,-24 -87,-4 -17,23 -3,55 40,119 61,89 67,151 22,213 -45,62 -127,83 -216,39l-51 71 -68 -49z"/>
   <path fill="#F9C71C" fill-rule="nonzero" d="M6489 6866l695 -1168c19,-32 10,-73 -20,-94l-203 -147 66 -92c124,-170 85,-410 -85,-533 -171,-123 -410,-85 -533,86l-67 91 -203 -147c-30,-22 -71,-17 -96,11l-186 214 17 199 234 -269 150 108 -75 104c-23,32 -16,77 16,100 32,23 77,16 100,-16l76 -104 386 280 -75 104c-23,32 -16,77 16,100 32,23 77,16 100,-16l75 -104 150 108 -624 1049 -437 -317 15 188 402 291c32,23 77,16 100,-16 3,-4 5,-7 6,-10zm36 -1864c77,-107 226,-131 333,-54 106,77 130,227 53,333l-66 92 -386 -280 66 -91z"/>
  </g>
  <g id="_843044304">
   <path fill="#F9C71C" d="M2075 3465c0,0 -888,184 -1347,344l688 349 -364 629c0,0 1202,-360 1467,-375 0,0 32,-259 -5,-259 -38,0 -316,65 -316,65l-123 -753z"/>
   <path fill="#F9C71C" d="M7916 3462c0,0 888,184 1347,344l-688 349 364 629c0,0 -1203,-359 -1467,-374 0,0 -32,-260 5,-260 37,0 316,65 316,65l123 -753z"/>
   <path fill="#F9C71C" d="M1985 2676c0,0 2894,-768 6027,0l-257 1496c0,0 -2423,-647 -5513,-14l-257 -1482z"/>
  </g>
  <path fill="#F9C71C" d="M2956 3165l0 -432 -43 0 0 903 43 0 0 -430 275 0 0 430 43 0 0 -903 -43 0 0 432 -275 0zm827 471l43 0 -207 -903 -34 0 -137 586 0 4 -72 313 43 0 62 -276 240 0 62 276zm-182 -789l110 472 -219 0 109 -472zm279 549c0,101 25,159 63,195 38,36 86,45 130,45 44,0 92,-9 130,-45 37,-36 63,-94 63,-195l0 -21 -43 0 0 21c0,69 -12,118 -38,152 -25,31 -63,47 -112,47 -100,0 -150,-61 -150,-199l0 -424c0,-139 52,-197 150,-197 97,0 150,58 150,197l0 21 43 0 0 -21c0,-98 -26,-160 -63,-195 -38,-35 -86,-44 -130,-44 -44,0 -92,9 -130,44 -38,35 -63,97 -63,195l0 424zm506 -150l0 -513 -43 0 0 903 43 0 0 -313 75 -114 245 427 49 0 -270 -471 270 -432 -52 0 -317 513zm821 390l43 0 -207 -903 -34 0 -137 586 0 4 -72 313 43 0 62 -276 240 0 62 276zm-182 -789l110 472 -219 0 109 -472zm680 537c0,-68 -21,-120 -61,-159 -13,-14 -28,-24 -46,-32 22,-11 53,-24 68,-42 33,-39 49,-99 49,-179 0,-165 -51,-240 -196,-240l-190 0 0 903 42 0 0 -422 121 0c108,0 170,63 170,171l0 251 43 0 0 -251zm-334 -609l148 0c120,0 155,56 155,197 0,139 -62,198 -182,198l-121 0 0 -395zm425 -42l0 903 326 0 0 -41 -284 0 0 -390 244 0 0 -42 -244 0 0 -388 284 0 0 -42 -326 0zm395 682c0,146 60,221 180,221 120,0 179,-75 179,-221l0 -682 -42 0 0 682c0,123 -47,180 -137,180 -31,0 -65,-4 -92,-30 -27,-25 -47,-69 -47,-150l0 -20 -41 0 0 20zm449 -19c0,101 26,159 63,195 38,36 86,45 130,45 44,0 92,-9 130,-45 38,-36 63,-94 63,-195l0 -424c0,-156 -64,-239 -193,-239 -128,0 -193,84 -193,239l0 424zm42 -424c0,-134 48,-197 151,-197 100,0 150,58 150,197l0 424c0,140 -52,199 -150,199 -101,0 -151,-63 -151,-199l0 -424z"/>
  <path fill="#F9C71C" d="M2632 2162c612,-49 2914,-211 4624,-22 294,33 275,-25 274,249l-9 2460c0,259 5,469 -41,729 -209,1192 -1006,2099 -2046,2642 -400,209 -381,244 -793,43 -1048,-512 -1946,-1524 -2126,-2684 -46,-292 -39,-566 -39,-860l0 -2375c0,-206 -43,-166 156,-182zm127 134c580,-47 2758,-201 4375,-21 279,32 260,-24 259,238l-7 2345c-1,247 4,448 -39,696 -199,1136 -952,2001 -1936,2519 -379,199 -360,233 -751,41 -992,-488 -1841,-1453 -2011,-2560 -43,-278 -36,-540 -36,-820l0 -2264c0,-197 -41,-159 146,-174z"/>
  <path fill="#FEFEFE" fill-rule="nonzero" d="M2956 3165l0 -432 -43 0 0 903 43 0 0 -430 275 0 0 430 43 0 0 -903 -43 0 0 432 -275 0zm827 471l43 0 -207 -903 -34 0 -137 586 0 4 -72 313 43 0 62 -276 240 0 62 276zm-182 -789l110 472 -219 0 109 -472zm279 549c0,101 25,159 63,195 38,36 86,45 130,45 44,0 92,-9 130,-45 37,-36 63,-94 63,-195l0 -21 -43 0 0 21c0,69 -12,118 -38,152 -25,31 -63,47 -112,47 -100,0 -150,-61 -150,-199l0 -424c0,-139 52,-197 150,-197 97,0 150,58 150,197l0 21 43 0 0 -21c0,-98 -26,-160 -63,-195 -38,-35 -86,-44 -130,-44 -44,0 -92,9 -130,44 -38,35 -63,97 -63,195l0 424zm506 -150l0 -513 -43 0 0 903 43 0 0 -313 75 -114 245 427 49 0 -270 -471 270 -432 -52 0 -317 513zm821 390l43 0 -207 -903 -34 0 -137 586 0 4 -72 313 43 0 62 -276 240 0 62 276zm-182 -789l110 472 -219 0 109 -472zm680 537c0,-68 -21,-120 -61,-159 -13,-14 -28,-24 -46,-32 22,-11 53,-24 68,-42 33,-39 49,-99 49,-179 0,-165 -51,-240 -196,-240l-190 0 0 903 42 0 0 -422 121 0c108,0 170,63 170,171l0 251 43 0 0 -251zm-334 -609l148 0c120,0 155,56 155,197 0,139 -62,198 -182,198l-121 0 0 -395zm425 -42l0 903 326 0 0 -41 -284 0 0 -390 244 0 0 -42 -244 0 0 -388 284 0 0 -42 -326 0zm395 682c0,146 60,221 180,221 120,0 179,-75 179,-221l0 -682 -42 0 0 682c0,123 -47,180 -137,180 -31,0 -65,-4 -92,-30 -27,-25 -47,-69 -47,-150l0 -20 -41 0 0 20zm449 -19c0,101 26,159 63,195 38,36 86,45 130,45 44,0 92,-9 130,-45 38,-36 63,-94 63,-195l0 -424c0,-156 -64,-239 -193,-239 -128,0 -193,84 -193,239l0 424zm42 -424c0,-134 48,-197 151,-197 100,0 150,58 150,197l0 424c0,140 -52,199 -150,199 -101,0 -151,-63 -151,-199l0 -424z"/>
  <g id="_843042448">
   <path fill="#F9C71C" fill-rule="nonzero" d="M6103 6747l-167 -1851c-4,-50 -47,-89 -97,-89l-343 0 0 -155c0,-288 -234,-522 -522,-522 -288,0 -523,234 -523,522l0 155 -342 0c-51,0 -94,39 -98,89l-167 1858c0,3 0,6 0,9 0,24 9,48 25,66 19,20 45,32 73,32l2064 0c54,0 98,-44 98,-98 0,-6 -1,-11 -1,-16zm-1456 -2095c0,-180 147,-326 327,-326 180,0 326,146 326,326l0 155 -653 0 0 -155zm-598 2013l149 -1662 253 0 0 175c0,54 44,98 98,98 55,0 98,-44 98,-98l0 -175 653 0 0 175c0,54 44,98 98,98 54,0 98,-44 98,-98l0 -175 253 0 149 1662 -1849 0z"/>
   <path fill="#FEFEFE" fill-rule="nonzero" d="M4944 6520l0 -144c-102,-5 -200,-32 -257,-65l45 -177c64,35 153,67 251,67 86,0 145,-33 145,-94 0,-57 -48,-94 -160,-132 -162,-54 -272,-129 -272,-276 0,-133 93,-237 255,-269l0 -144 148 0 0 133c101,5 169,26 219,50l-43 171c-40,-17 -109,-51 -218,-51 -98,0 -130,42 -130,84 0,50 53,82 181,130 180,64 253,147 253,283 0,134 -95,249 -269,280l0 154 -148 0z"/>
  </g>
 </g>
</svg>
